<svg width="142" height="33" fill="none" xmlns="http://www.w3.org/2000/svg"><path d="M.88 6.74V32.6h3.71V13.87h.24l7.63 18.7h3.08l7.63-18.68h.24V32.6h3.72V6.74h-4.74l-8.24 20.1h-.3L5.61 6.75H.88zM40.86 33c4.23 0 7.23-2.08 8.09-5.24l-3.58-.65c-.68 1.84-2.32 2.77-4.47 2.77-3.23 0-5.4-2.1-5.5-5.84h13.79V22.7c0-7-4.2-9.75-8.6-9.75-5.4 0-8.96 4.12-8.96 10.08 0 6.03 3.5 9.97 9.23 9.97zM35.4 21.21c.16-2.75 2.15-5.14 5.22-5.14 2.93 0 4.85 2.18 4.86 5.14H35.4zM67.92 17.94c-.79-3.02-3.15-4.99-7.34-4.99-4.39 0-7.5 2.31-7.5 5.75 0 2.75 1.67 4.59 5.31 5.4l3.29.71c1.87.42 2.74 1.25 2.74 2.47 0 1.5-1.6 2.68-4.08 2.68-2.26 0-3.72-.98-4.17-2.88l-3.65.55C53.15 31.07 56 33 60.36 33c4.69 0 7.94-2.49 7.94-6 0-2.74-1.75-4.43-5.31-5.26l-3.08-.7c-2.14-.5-3.06-1.23-3.05-2.54 0-1.5 1.6-2.55 3.76-2.55 2.34 0 3.43 1.3 3.87 2.6l3.43-.6zM81.5 13.2h-3.97V8.57h-3.78v4.65H70.9v3.03h2.84v11.45c-.01 3.53 2.68 5.23 5.66 5.17 1.2-.01 2-.24 2.45-.4l-.68-3.12c-.26.05-.72.16-1.33.16-1.22 0-2.32-.4-2.32-2.59V16.24h3.98V13.2zM93.65 33c5.47 0 9.04-4 9.04-10 0-6.04-3.57-10.05-9.04-10.05-5.47 0-9.05 4-9.05 10.05 0 6 3.58 10 9.05 10zm.01-3.17c-3.57 0-5.24-3.12-5.24-6.85 0-3.71 1.67-6.87 5.24-6.87 3.55 0 5.22 3.16 5.22 6.87 0 3.73-1.67 6.85-5.22 6.85zM106.78 8.9h1.05V5.51h2.11l1.81 3.37h1.22l-1.95-3.56c1.1-.37 1.61-1.27 1.61-2.42 0-1.52-.91-2.64-2.93-2.64h-2.92v8.62zm1.05-4.32V1.2h1.84c1.4 0 1.93.68 1.93 1.71 0 1.04-.54 1.67-1.92 1.67h-1.85zM118.31 6.25c0 1.21-.92 1.77-1.67 1.77-.82 0-1.41-.6-1.41-1.55V2.43h-1v4.1c0 1.66.88 2.45 2.1 2.45.97 0 1.61-.52 1.91-1.18h.07v1.1h1V2.42h-1v3.82zM125.7 3.87c-.3-.91-1-1.53-2.28-1.53-1.37 0-2.38.78-2.38 1.87 0 .9.53 1.5 1.72 1.77l1.08.25c.65.15.96.47.96.91 0 .56-.6 1.01-1.52 1.01-.81 0-1.32-.35-1.5-1.04l-.94.23c.23 1.1 1.13 1.69 2.46 1.69 1.5 0 2.52-.82 2.52-1.94 0-.9-.56-1.47-1.71-1.75l-.96-.24c-.77-.19-1.12-.44-1.12-.94 0-.56.6-.96 1.39-.96.86 0 1.22.48 1.4.93l.89-.26zM131.9 3.87c-.31-.91-1-1.53-2.29-1.53-1.36 0-2.37.78-2.37 1.87 0 .9.53 1.5 1.71 1.77l1.08.25c.65.15.96.47.96.91 0 .56-.59 1.01-1.51 1.01-.82 0-1.33-.35-1.5-1.04l-.95.23c.23 1.1 1.14 1.69 2.46 1.69 1.5 0 2.53-.82 2.53-1.94 0-.9-.56-1.47-1.72-1.75l-.96-.24c-.77-.19-1.11-.44-1.11-.94 0-.56.59-.96 1.38-.96.87 0 1.23.48 1.4.93l.9-.26zM133.51 8.9h1V2.42h-1v6.46zm.51-7.55c.39 0 .7-.3.7-.68a.7.7 0 00-.7-.67.7.7 0 00-.7.67c0 .37.31.68.7.68zM138.23 9.04c1.13 0 1.72-.6 1.92-1.02h.05v.87h1V4.63c0-2.05-1.57-2.29-2.4-2.29-.97 0-2.08.34-2.59 1.52l.94.33c.22-.47.74-.97 1.69-.97.91 0 1.36.48 1.36 1.31v.03c0 .48-.49.44-1.66.6-1.2.15-2.51.42-2.51 1.9 0 1.26.97 1.98 2.2 1.98zm.15-.89c-.79 0-1.36-.35-1.36-1.04 0-.76.69-1 1.47-1.1.42-.05 1.54-.17 1.71-.37v.91c0 .81-.64 1.6-1.82 1.6z" fill="#fff"/></svg>